{"title":"Nightcrawler (2014) DvDSCR XviD AC3-RAV3N","uid":11626583,"size":1380018672,"categoryP":"video","categoryS":"movies","magnet":"?xt=urn:btih:e19c5b855b069485444ce486b953fede8466447a&amp;dn=Nightcrawler+%282014%29+DvDSCR+XviD+AC3-RAV3N&amp;tr=udp%3A%2F%2Ftracker.openbittorrent.com%3A80&amp;tr=udp%3A%2F%2Fopen.demonii.com%3A1337&amp;tr=udp%3A%2F%2Ftracker.coppersurfer.tk%3A6969&amp;tr=udp%3A%2F%2Fexodus.desync.com%3A6969","seeders":3,"leechers":0,"uploader":"xxxlavalxxx","files":-1,"time":1417628387,"description":"[IMG]http://i.imgur.com/HQ1eaUU.jpg[/IMG]\n &lt;a href=&quot;\nhttp://www.imdb.com/title/tt2872718/&quot; rel=&quot;nofollow&quot; target=&quot;_NEW&quot;&gt;\nhttp://www.imdb.com/title/tt2872718/&lt;/a&gt;\n\n\nWhen Lou Bloom, a driven man desperate for work, muscles into the world of L.A. crime journalism, he blurs the line between observer and participant to become the star of his own story. Aiding him in his effort is Nina, a TV-news veteran.\n\nDirector: Dan Gilroy\nWriter: Dan Gilroy\nStars: Jake Gyllenhaal, Rene Russo, Bill Paxton\nGenres: Crime, Drama, Thriller\nCountry: USA\nLanguage: English\n\n\nFormat                      : AVI\nFormat/Info                 : Audio Video Interleave\nFormat profile              : OpenDML\nFile size                   : 1.27 GiB\nDuration                    : 1h 57mn\nOverall bit rate            : 1 537 Kbps\n\nVideo\nID                          : 0\nFormat                      : MPEG-4 Visual\nCodec ID                    : XVID\nCodec ID/Hint               : XviD\nDuration                    : 1h 57mn\nBit rate                    : 1 364 Kbps\nWidth                       : 704 pixels\nHeight                      : 360 pixels\nDisplay aspect ratio        : 1.956\nFrame rate                  : 25.000 fps\nColor space                 : YUV\nChroma subsampling          : 4:2:0\nCompression mode            : Lossy\nBits/(Pixel*Frame)          : 0.215\nStream size                 : 1.12 GiB (89%)\n\nAudio\nID                          : 1\nFormat                      : AC-3\nFormat/Info                 : Audio Coding 3\nMode extension              : CM (complete main)\nFormat settings, Endianness : Big\nCodec ID                    : 2000\nDuration                    : 1h 57mn\nBit rate mode               : Constant\nBit rate                    : 160 Kbps\nChannel(s)                  : 2 channels\nLanguage                   : English\nChannel positions           : Front: L R\nSampling rate               : 48.0 KHz\nBit depth                   : 16 bits\nCompression mode            : Lossy\nStream size                 : 135 MiB (10%)\nAlignment                   : Aligned on interleaves\nInterleave, duration        : 32 ms (0.80 video frame)\nInterleave, preload duratio : 32 ms\n\n\nscreens\n &lt;a href=&quot;\nhttp://extraimago.com/images/2014/12/03/image.png&quot; rel=&quot;nofollow&quot; target=&quot;_NEW&quot;&gt;\nhttp://extraimago.com/images/2014/12/03/image.png&lt;/a&gt; &lt;a href=&quot;\nhttp://extraimago.com/images/2014/12/03/image1.png&quot; rel=&quot;nofollow&quot; target=&quot;_NEW&quot;&gt;\nhttp://extraimago.com/images/2014/12/03/image1.png&lt;/a&gt; &lt;a href=&quot;\nhttp://extraimago.com/images/2014/12/03/image2.png&quot; rel=&quot;nofollow&quot; target=&quot;_NEW&quot;&gt;\nhttp://extraimago.com/images/2014/12/03/image2.png&lt;/a&gt;","torrent":{"xt":"urn:btih:e19c5b855b069485444ce486b953fede8466447a","amp;dn":"Nightcrawler+%282014%29+DvDSCR+XviD+AC3-RAV3N","amp;tr":["udp%3A%2F%2Ftracker.openbittorrent.com%3A80","udp%3A%2F%2Fopen.demonii.com%3A1337","udp%3A%2F%2Ftracker.coppersurfer.tk%3A6969","udp%3A%2F%2Fexodus.desync.com%3A6969"],"infoHash":"e19c5b855b069485444ce486b953fede8466447a","infoHashBuffer":{"type":"Buffer","data":[225,156,91,133,91,6,148,133,68,76,228,134,185,83,254,222,132,102,68,122]},"announce":[],"urlList":[]}}